<?xml version="1.0" standalone="no"?>
<!DOCTYPE svg PUBLIC "-//W3C//DTD SVG 20010904//EN"
 "http://www.w3.org/TR/2001/REC-SVG-20010904/DTD/svg10.dtd">
<svg version="1.0" xmlns="http://www.w3.org/2000/svg"
 width="512.000000pt" height="512.000000pt" viewBox="0 0 512.000000 512.000000"
 preserveAspectRatio="xMidYMid meet">

<g transform="translate(0.000000,512.000000) scale(0.100000,-0.100000)"
fill="#000000" stroke="none">
<path d="M800 5049 c-368 -42 -675 -312 -772 -679 l-23 -85 0 -1725 0 -1725
23 -85 c99 -374 402 -637 785 -679 134 -15 3360 -15 3494 0 383 42 686 305
785 679 l23 85 0 1725 0 1725 -23 85 c-99 374 -402 637 -785 679 -117 13
-3392 13 -3507 0z m2958 -1136 c108 -52 157 -185 117 -319 -32 -110 -124 -174
-247 -174 -116 1 -188 41 -233 131 -124 242 117 482 363 362z m-1390 -145 c20
-25 793 -2221 784 -2230 -5 -5 -116 -7 -248 -6 l-239 3 -90 262 -90 263 -400
0 -401 0 -83 -260 c-49 -151 -90 -261 -98 -265 -8 -3 -109 -5 -224 -5 -166 0
-211 3 -215 13 -3 8 147 450 332 983 186 533 348 1004 361 1048 12 43 23 102
23 130 0 29 5 57 12 64 18 18 561 17 576 0z m1487 -1388 l0 -845 -230 0 -230
0 -3 848 -2 847 232 -2 233 -3 0 -845z"/>
<path d="M1946 2947 c-71 -237 -132 -438 -134 -444 -3 -10 54 -13 267 -13 149
0 271 3 271 8 1 13 -265 882 -270 882 -3 0 -63 -195 -134 -433z"/>
</g>
</svg>
