<svg width="1024" height="1024" version="1.1" xmlns="http://www.w3.org/2000/svg" desc="Created with imagetracer.js version 1.2.6" ><path fill="rgb(0,0,0)" stroke="rgb(0,0,0)" stroke-width="1" opacity="0" d="M 0 0 L 1024 0 L 1024 595.5 L 1023 595.5 Q 1018.5 569.1 1001.5 555 L 984.5 543 L 794 434 L 808 385.5 L 820 327.5 L 823 298.5 L 824 297.5 L 825 272.5 L 826 271.5 L 826 228.5 L 825 227.5 L 825 215.5 L 824 214.5 L 822 193.5 L 818 174.5 L 811 152.5 Q 798.3 118.7 773.5 97 L 747.5 80 L 715.5 64 L 678.5 49 L 636.5 36 L 599.5 28 L 574.5 25 L 573.5 24 L 565.5 24 L 564.5 23 L 539.5 22 L 538.5 21 L 487.5 21 L 486.5 22 L 472.5 22 L 471.5 23 L 461.5 23 L 460.5 24 L 437.5 26 L 400.5 33 Q 342.9 46.4 294.5 69 Q 196.1 115.6 126 190.5 Q 82.9 235.9 50 291.5 Q 31.8 322.3 17 356.5 L 4 389.5 L 0.5 403 L 0 0 Z " /><path fill="rgb(0,0,0)" stroke="rgb(0,0,0)" stroke-width="1" opacity="0" d="M 568.5 212 L 604.5 212 Q 606.3 214.8 612.5 213 L 635.5 218 L 647.5 222 Q 688.2 237.8 714 268.5 Q 740.8 299.2 754 343.5 L 759 363.5 L 762 380.5 L 762 387.5 L 763 388.5 L 763 398.5 L 764 399.5 L 764 446.5 L 763 447.5 L 763 457.5 L 762 458.5 L 762 466.5 L 761 467.5 L 759 485.5 L 751 520.5 Q 740.1 559.1 724 592.5 Q 687.5 667.5 630.5 722 Q 587.6 763.6 529.5 790 L 502.5 800 L 473.5 807 L 460.5 808 L 459.5 809 L 449.5 809 L 448.5 810 L 426.5 810 L 425.5 809 L 408.5 808 L 390.5 804 L 363.5 794 Q 335.4 780.1 315 758.5 Q 283.4 725.1 269 674.5 L 263 647.5 L 261 623.5 L 260 622.5 L 260 574.5 L 261 573.5 L 261 563.5 L 262 562.5 L 265 535.5 L 273 500.5 L 283 469.5 L 296 437.5 Q 335.3 352.3 400.5 293 Q 437.9 258.4 486.5 235 L 526.5 220 L 552.5 214 L 567.5 213 L 568.5 212 Z " /><path fill="rgb(0,0,0)" stroke="rgb(0,0,0)" stroke-width="1" opacity="0" d="M 0.5 426 L 7 446.5 Q 14.2 459.8 25.5 469 L 40.5 479 L 230 588.5 L 222 613.5 L 212 652.5 L 204 693.5 L 202 714.5 L 201 715.5 L 201 723.5 L 200 724.5 L 200 733.5 L 199 734.5 L 199 748.5 L 198 749.5 L 198 792.5 L 199 793.5 L 199 805.5 L 200 806.5 L 201 822.5 L 204 838.5 L 214 871.5 Q 227.2 904.8 252.5 926 Q 276.6 943.4 305.5 956 Q 336.5 970.5 371.5 981 L 411.5 991 L 416.5 991 L 447.5 997 L 465.5 998 L 466.5 999 L 478.5 999 L 479.5 1000 L 506.5 1000 Q 508 1002.5 513.5 1001 L 514.5 1000 L 542.5 1000 L 543.5 999 L 555.5 999 L 556.5 998 L 574.5 997 L 625.5 988 L 659.5 979 Q 692 969 721.5 956 Q 828.8 907.3 903 825.5 Q 944.3 780.8 976 726.5 L 1005 669.5 L 1018 637.5 L 1023.5 618 L 1024 1024 L 0 1024 L 0.5 426 Z " /><path fill="rgb(12,242,170)" stroke="rgb(12,242,170)" stroke-width="1" opacity="0.996078431372549" d="M 109.5 209 L 116.5 211 L 136.5 211 L 137.5 212 L 148.5 212 L 149.5 213 L 158.5 213 L 159.5 214 L 180.5 216 L 216.5 223 L 254.5 233 Q 327.2 255.3 386 291.5 L 344.5 351 Q 290.5 318 220.5 301 L 183.5 294 L 156.5 292 L 155.5 291 L 103.5 291 L 102.5 292 L 92.5 292 L 91.5 293 L 71.5 295 L 45.5 301 L 47 298.5 L 53 286.5 L 69 261.5 L 103 216 L 108 213.5 L 110 210.5 L 109.5 209 Z " /><path fill="rgb(12,242,170)" stroke="rgb(12,242,170)" stroke-width="1" opacity="0.996078431372549" d="M 343.5 352 L 342.5 354 L 343.5 352 Z " /><path fill="rgb(12,242,170)" stroke="rgb(12,242,170)" stroke-width="1" opacity="0.996078431372549" d="M 311.5 406 L 310.5 408 L 311.5 406 Z " /><path fill="rgb(12,242,170)" stroke="rgb(12,242,170)" stroke-width="1" opacity="0.996078431372549" d="M 307.5 413 L 306.5 415 L 307.5 413 Z " /><path fill="rgb(12,242,170)" stroke="rgb(12,242,170)" stroke-width="1" opacity="0.996078431372549" d="M 716.5 608 L 715.5 610 L 716.5 608 Z " /><path fill="rgb(12,242,170)" stroke="rgb(12,242,170)" stroke-width="1" opacity="0.996078431372549" d="M 710.5 618 L 709.5 620 L 710.5 618 Z " /><path fill="rgb(12,242,170)" stroke="rgb(12,242,170)" stroke-width="1" opacity="0.996078431372549" d="M 680.5 669 L 680 670.5 Q 679.3 672.8 681.5 672 Q 728.3 699.7 786.5 716 L 820.5 724 L 844.5 727 L 845.5 728 L 852.5 728 L 853.5 729 L 878.5 730 L 879.5 731 L 910.5 731 L 911.5 730 L 924.5 730 L 925.5 729 L 934.5 729 L 935.5 728 L 954.5 726 L 976.5 721 L 978.5 719 L 979 720.5 Q 955.5 762.4 927 798 Q 924.3 796.9 925 799.5 L 919.5 806 L 917 807.5 L 917.5 809 L 916.5 808 L 913.5 811 L 882.5 810 L 881.5 809 L 871.5 809 L 870.5 808 L 847.5 806 L 805.5 798 L 771.5 789 Q 697.9 766.6 638 730.5 L 680.5 669 Z " /><path fill="rgb(10,234,245)" stroke="rgb(10,234,245)" stroke-width="1" opacity="0.9921568627450981" d="M 267.5 83 L 270.5 84 Q 389.5 120 483 181.5 L 476.5 189 L 464 200.5 Q 437.2 227.2 413.5 257 L 414 255.5 Q 414.8 253.3 412.5 254 Q 358.1 220.4 293.5 197 L 250.5 183 L 215.5 174 L 173.5 166 L 160.5 165 L 155 162.5 L 158 162 Q 157.3 158.2 160.5 157 Q 208 114 267.5 83 Z " /><path fill="rgb(10,234,245)" stroke="rgb(10,234,245)" stroke-width="1" opacity="0.9921568627450981" d="M 148.5 168 L 147.5 170 L 148.5 168 Z " /><path fill="rgb(10,234,245)" stroke="rgb(10,234,245)" stroke-width="1" opacity="0.9921568627450981" d="M 144.5 172 L 143.5 174 L 144.5 172 Z " /><path fill="rgb(10,234,245)" stroke="rgb(10,234,245)" stroke-width="1" opacity="0.9921568627450981" d="M 127.5 189 L 126.5 191 L 127.5 189 Z " /><path fill="rgb(10,234,245)" stroke="rgb(10,234,245)" stroke-width="1" opacity="0.9921568627450981" d="M 816.5 333 Q 819.3 334.3 818 339.5 L 816 344.5 L 816 349.5 Q 812.5 357.5 812 368.5 L 810 372.5 L 810 376.5 L 808 378.5 Q 810.5 380 807 381.5 L 805.5 384 L 764 396 L 763 392.5 L 764 390.5 L 762 387.5 L 762 385.5 L 761 373.5 L 757 356.5 L 758 354.5 L 756 354.5 L 756.5 352 L 816.5 333 Z " /><path fill="rgb(10,234,245)" stroke="rgb(10,234,245)" stroke-width="1" opacity="0.9921568627450981" d="M 258.5 625 Q 261.5 624.1 260 628.5 L 261 631.5 L 264 653.5 L 267 665.5 L 266.5 667 Q 269.5 666.2 268 670 L 264.5 670 L 207 688 L 206 683.5 L 212 652.5 L 216 641.5 L 215.5 640 L 218.5 638 L 258.5 625 Z " /><path fill="rgb(10,234,245)" stroke="rgb(10,234,245)" stroke-width="1" opacity="0.9921568627450981" d="M 612.5 762 L 611.5 764 L 612.5 762 Z " /><path fill="rgb(10,234,245)" stroke="rgb(10,234,245)" stroke-width="1" opacity="0.9921568627450981" d="M 609.5 766 Q 636.8 783.7 667.5 798 Q 702.3 814.7 740.5 828 L 802.5 846 L 841.5 854 L 869 857.5 L 867 861 Q 864.3 859.9 865 862.5 Q 841 885 813.5 904 L 779.5 926 L 759.5 937 L 756 937.5 L 756.5 939 L 754.5 940 L 754.5 938 Q 634.8 901.8 541 839.5 Q 577.5 805 609.5 766 Z " /><path fill="rgb(10,234,245)" stroke="rgb(10,234,245)" stroke-width="1" opacity="0.9921568627450981" d="M 872.5 855 L 870.5 858 L 872.5 855 Z " /><path fill="rgb(4,156,242)" stroke="rgb(4,156,242)" stroke-width="1" opacity="0.9803921568627451" d="M 488.5 21 L 537.5 21 L 538.5 22 L 553.5 22 L 554.5 23 L 564.5 23 L 565.5 24 L 587.5 26 L 619.5 32 Q 691.2 48.3 747 80.5 L 745.5 81 L 742.5 79 L 721.5 73 L 704.5 72 L 703.5 71 L 692.5 71 L 691.5 72 L 680.5 72 L 679.5 73 L 662.5 75 L 634.5 83 Q 602.2 94.7 575.5 112 L 574.5 109 Q 508.6 63.4 433 27.5 L 452.5 25 L 453.5 24 L 471.5 23 L 472.5 22 L 487.5 22 L 488.5 21 Z " /><path fill="rgb(4,156,242)" stroke="rgb(4,156,242)" stroke-width="1" opacity="0.9803921568627451" d="M 431.5 27 L 430.5 29 L 421.5 30 L 421.5 29 L 431.5 27 Z " /><path fill="rgb(4,156,242)" stroke="rgb(4,156,242)" stroke-width="1" opacity="0.9803921568627451" d="M 573.5 112 L 572.5 114 L 573.5 112 Z " /><path fill="rgb(4,156,242)" stroke="rgb(4,156,242)" stroke-width="1" opacity="0.9803921568627451" d="M 570.5 114 L 569.5 116 L 570.5 114 Z " /><path fill="rgb(4,156,242)" stroke="rgb(4,156,242)" stroke-width="1" opacity="0.9803921568627451" d="M 559.5 121 L 558.5 123 L 559.5 121 Z " /><path fill="rgb(4,156,242)" stroke="rgb(4,156,242)" stroke-width="1" opacity="0.9803921568627451" d="M 556.5 123 L 555.5 125 L 556.5 123 Z " /><path fill="rgb(4,156,242)" stroke="rgb(4,156,242)" stroke-width="1" opacity="0.9803921568627451" d="M 546.5 130 L 545.5 132 L 546.5 130 Z " /><path fill="rgb(4,156,242)" stroke="rgb(4,156,242)" stroke-width="1" opacity="0.9803921568627451" d="M 539.5 135 L 538.5 137 L 539.5 135 Z " /><path fill="rgb(4,156,242)" stroke="rgb(4,156,242)" stroke-width="1" opacity="0.9803921568627451" d="M 531.5 141 L 530.5 143 L 531.5 141 Z " /><path fill="rgb(4,156,242)" stroke="rgb(4,156,242)" stroke-width="1" opacity="0.9803921568627451" d="M 526.5 145 L 525.5 147 L 526.5 145 Z " /><path fill="rgb(4,156,242)" stroke="rgb(4,156,242)" stroke-width="1" opacity="0.9803921568627451" d="M 521.5 149 L 520.5 151 L 521.5 149 Z " /><path fill="rgb(4,156,242)" stroke="rgb(4,156,242)" stroke-width="1" opacity="0.9803921568627451" d="M 516.5 153 L 515.5 155 L 516.5 153 Z " /><path fill="rgb(4,156,242)" stroke="rgb(4,156,242)" stroke-width="1" opacity="0.9803921568627451" d="M 810.5 154 L 818 174.5 L 823 199.5 L 824 214.5 L 825 215.5 L 825 228.5 L 826 229.5 L 826 255.5 L 825 255.5 Q 826.3 249.4 823.5 250 L 735.5 277 L 725 281.5 L 728 286.5 L 727 286.5 Q 714.2 265.3 695.5 250 Q 678 235 655.5 225 L 642.5 220 L 625.5 216 L 624 214.5 L 626.5 214 L 811 158 L 810.5 154 Z " /><path fill="rgb(4,156,242)" stroke="rgb(4,156,242)" stroke-width="1" opacity="0.9803921568627451" d="M 510.5 158 L 509.5 160 L 510.5 158 Z " /><path fill="rgb(4,156,242)" stroke="rgb(4,156,242)" stroke-width="1" opacity="0.9803921568627451" d="M 504.5 163 L 502.5 166 L 504.5 163 Z " /><path fill="rgb(4,156,242)" stroke="rgb(4,156,242)" stroke-width="1" opacity="0.9803921568627451" d="M 496.5 170 L 494.5 173 L 496.5 170 Z " /><path fill="rgb(4,156,242)" stroke="rgb(4,156,242)" stroke-width="1" opacity="0.9803921568627451" d="M 485.5 180 L 480.5 186 L 485.5 180 Z " /><path fill="rgb(4,156,242)" stroke="rgb(4,156,242)" stroke-width="1" opacity="0.9803921568627451" d="M 616.5 213 L 623 214.5 L 620.5 215 L 616.5 214 L 616.5 213 Z " /><path fill="rgb(4,156,242)" stroke="rgb(4,156,242)" stroke-width="1" opacity="0.9803921568627451" d="M 451.5 214 L 447.5 219 L 451.5 214 Z " /><path fill="rgb(4,156,242)" stroke="rgb(4,156,242)" stroke-width="1" opacity="0.9803921568627451" d="M 438.5 228 L 436.5 231 L 438.5 228 Z " /><path fill="rgb(4,156,242)" stroke="rgb(4,156,242)" stroke-width="1" opacity="0.9803921568627451" d="M 430.5 237 L 428.5 240 L 430.5 237 Z " /><path fill="rgb(4,156,242)" stroke="rgb(4,156,242)" stroke-width="1" opacity="0.9803921568627451" d="M 423.5 245 L 422.5 247 L 423.5 245 Z " /><path fill="rgb(4,156,242)" stroke="rgb(4,156,242)" stroke-width="1" opacity="0.9803921568627451" d="M 418.5 251 L 417.5 253 L 418.5 251 Z " /><path fill="rgb(4,156,242)" stroke="rgb(4,156,242)" stroke-width="1" opacity="0.9803921568627451" d="M 413.5 257 L 411.5 260 L 413.5 257 Z " /><path fill="rgb(4,156,242)" stroke="rgb(4,156,242)" stroke-width="1" opacity="0.9803921568627451" d="M 408.5 263 L 407.5 265 L 408.5 263 Z " /><path fill="rgb(4,156,242)" stroke="rgb(4,156,242)" stroke-width="1" opacity="0.9803921568627451" d="M 404.5 268 L 403.5 270 L 404.5 268 Z " /><path fill="rgb(4,156,242)" stroke="rgb(4,156,242)" stroke-width="1" opacity="0.9803921568627451" d="M 428.5 269 L 426.5 272 L 426 270 L 428.5 269 Z " /><path fill="rgb(4,156,242)" stroke="rgb(4,156,242)" stroke-width="1" opacity="0.9803921568627451" d="M 401.5 272 L 399.5 275 L 401.5 272 Z " /><path fill="rgb(4,156,242)" stroke="rgb(4,156,242)" stroke-width="1" opacity="0.9803921568627451" d="M 424.5 272 L 421.5 276 L 417.5 278 L 418.5 276 L 424.5 272 Z " /><path fill="rgb(4,156,242)" stroke="rgb(4,156,242)" stroke-width="1" opacity="0.9803921568627451" d="M 397.5 277 L 396 279.5 L 392 285.5 L 395.5 286 L 415.5 279 L 411.5 284 L 403 290 Q 404.1 292.7 401.5 292 L 387.5 306 L 386 306 L 386 308 Q 383.3 306.9 384 309.5 Q 351.8 340.8 327.5 380 L 328 378.5 Q 359.2 324.2 397.5 277 Z " /><path fill="rgb(4,156,242)" stroke="rgb(4,156,242)" stroke-width="1" opacity="0.9803921568627451" d="M 695.5 643 L 695 644.5 Q 667.3 692.8 633.5 735 L 610.5 741 L 597.5 751 L 599.5 748 L 610 741 Q 608.9 738.3 611.5 739 L 645 707.5 Q 673.3 678.3 695.5 643 Z " /><path fill="rgb(4,156,242)" stroke="rgb(4,156,242)" stroke-width="1" opacity="0.9803921568627451" d="M 296.5 735 Q 308.1 752.9 323.5 767 Q 338.6 780.9 357.5 791 L 377.5 800 L 397.5 806 L 401.5 806 L 403 807.5 L 401.5 807 L 396.5 807 L 386.5 810 L 321.5 831 L 214.5 863 L 213 864.5 L 214 867.5 L 213 867.5 L 206 846.5 L 201 821.5 L 200 806.5 L 199 805.5 L 199 793.5 L 198 792.5 L 198 769.5 L 199 769.5 Q 198.2 772.1 201.5 771 L 299 740.5 L 296 736.5 L 296.5 735 Z " /><path fill="rgb(4,156,242)" stroke="rgb(4,156,242)" stroke-width="1" opacity="0.9803921568627451" d="M 632.5 736 L 630.5 739 L 632.5 736 Z " /><path fill="rgb(4,156,242)" stroke="rgb(4,156,242)" stroke-width="1" opacity="0.9803921568627451" d="M 629.5 740 L 627.5 743 L 629.5 740 Z " /><path fill="rgb(4,156,242)" stroke="rgb(4,156,242)" stroke-width="1" opacity="0.9803921568627451" d="M 626.5 744 L 624.5 747 L 626.5 744 Z " /><path fill="rgb(4,156,242)" stroke="rgb(4,156,242)" stroke-width="1" opacity="0.9803921568627451" d="M 622.5 749 L 620.5 752 L 622.5 749 Z " /><path fill="rgb(4,156,242)" stroke="rgb(4,156,242)" stroke-width="1" opacity="0.9803921568627451" d="M 592.5 753 L 591.5 755 L 592.5 753 Z " /><path fill="rgb(4,156,242)" stroke="rgb(4,156,242)" stroke-width="1" opacity="0.9803921568627451" d="M 618.5 754 L 616.5 757 L 618.5 754 Z " /><path fill="rgb(4,156,242)" stroke="rgb(4,156,242)" stroke-width="1" opacity="0.9803921568627451" d="M 613.5 760 L 612.5 762 L 613.5 760 Z " /><path fill="rgb(4,156,242)" stroke="rgb(4,156,242)" stroke-width="1" opacity="0.9803921568627451" d="M 198.5 765 L 199 767.5 L 198 767.5 L 198.5 765 Z " /><path fill="rgb(4,156,242)" stroke="rgb(4,156,242)" stroke-width="1" opacity="0.9803921568627451" d="M 609.5 765 L 607.5 768 L 609.5 765 Z " /><path fill="rgb(4,156,242)" stroke="rgb(4,156,242)" stroke-width="1" opacity="0.9803921568627451" d="M 603.5 772 L 602.5 774 L 603.5 772 Z " /><path fill="rgb(4,156,242)" stroke="rgb(4,156,242)" stroke-width="1" opacity="0.9803921568627451" d="M 598.5 778 L 596.5 781 L 598.5 778 Z " /><path fill="rgb(4,156,242)" stroke="rgb(4,156,242)" stroke-width="1" opacity="0.9803921568627451" d="M 590.5 787 L 588.5 790 L 590.5 787 Z " /><path fill="rgb(4,156,242)" stroke="rgb(4,156,242)" stroke-width="1" opacity="0.9803921568627451" d="M 582.5 796 L 578.5 801 L 582.5 796 Z " /><path fill="rgb(4,156,242)" stroke="rgb(4,156,242)" stroke-width="1" opacity="0.9803921568627451" d="M 407.5 807 L 408.5 809 L 407.5 807 Z " /><path fill="rgb(4,156,242)" stroke="rgb(4,156,242)" stroke-width="1" opacity="0.9803921568627451" d="M 566.5 813 L 549.5 831 L 566.5 813 Z " /><path fill="rgb(4,156,242)" stroke="rgb(4,156,242)" stroke-width="1" opacity="0.9803921568627451" d="M 535.5 843 L 533.5 846 L 535.5 843 Z " /><path fill="rgb(4,156,242)" stroke="rgb(4,156,242)" stroke-width="1" opacity="0.9803921568627451" d="M 526.5 851 L 523.5 855 L 526.5 851 Z " /><path fill="rgb(4,156,242)" stroke="rgb(4,156,242)" stroke-width="1" opacity="0.9803921568627451" d="M 518.5 858 L 516.5 861 L 518.5 858 Z " /><path fill="rgb(4,156,242)" stroke="rgb(4,156,242)" stroke-width="1" opacity="0.9803921568627451" d="M 511.5 864 L 510.5 866 L 511.5 864 Z " /><path fill="rgb(4,156,242)" stroke="rgb(4,156,242)" stroke-width="1" opacity="0.9803921568627451" d="M 506.5 868 L 505.5 870 L 506.5 868 Z " /><path fill="rgb(4,156,242)" stroke="rgb(4,156,242)" stroke-width="1" opacity="0.9803921568627451" d="M 500.5 873 L 499.5 875 L 500.5 873 Z " /><path fill="rgb(4,156,242)" stroke="rgb(4,156,242)" stroke-width="1" opacity="0.9803921568627451" d="M 496.5 876 L 495.5 878 L 496.5 876 Z " /><path fill="rgb(4,156,242)" stroke="rgb(4,156,242)" stroke-width="1" opacity="0.9803921568627451" d="M 484.5 885 L 483.5 887 L 484.5 885 Z " /><path fill="rgb(4,156,242)" stroke="rgb(4,156,242)" stroke-width="1" opacity="0.9803921568627451" d="M 480.5 888 L 479.5 890 L 480.5 888 Z " /><path fill="rgb(4,156,242)" stroke="rgb(4,156,242)" stroke-width="1" opacity="0.9803921568627451" d="M 473.5 893 L 472.5 895 L 473.5 893 Z " /><path fill="rgb(4,156,242)" stroke="rgb(4,156,242)" stroke-width="1" opacity="0.9803921568627451" d="M 470.5 895 L 469.5 897 L 470.5 895 Z " /><path fill="rgb(4,156,242)" stroke="rgb(4,156,242)" stroke-width="1" opacity="0.9803921568627451" d="M 467.5 897 L 466.5 899 L 467.5 897 Z " /><path fill="rgb(4,156,242)" stroke="rgb(4,156,242)" stroke-width="1" opacity="0.9803921568627451" d="M 464.5 899 L 463.5 901 L 464.5 899 Z " /><path fill="rgb(4,156,242)" stroke="rgb(4,156,242)" stroke-width="1" opacity="0.9803921568627451" d="M 461.5 901 L 460.5 903 L 461.5 901 Z " /><path fill="rgb(4,156,242)" stroke="rgb(4,156,242)" stroke-width="1" opacity="0.9803921568627451" d="M 458.5 903 L 457.5 905 L 458.5 903 Z " /><path fill="rgb(4,156,242)" stroke="rgb(4,156,242)" stroke-width="1" opacity="0.9803921568627451" d="M 453.5 906 L 452.5 908 L 453.5 906 Z " /><path fill="rgb(4,156,242)" stroke="rgb(4,156,242)" stroke-width="1" opacity="0.9803921568627451" d="M 450.5 908 L 449.5 910 L 450.5 908 Z " /><path fill="rgb(4,156,242)" stroke="rgb(4,156,242)" stroke-width="1" opacity="0.9803921568627451" d="M 447.5 910 L 448 912 Q 489.5 939.8 534.5 965 L 588.5 993 L 593 993.5 L 581.5 996 L 566.5 997 L 565.5 998 L 556.5 998 L 555.5 999 L 513.5 1000 Q 512.2 1002.2 507.5 1001 L 506.5 1000 L 479.5 1000 L 478.5 999 L 466.5 999 L 465.5 998 L 447.5 997 L 446.5 996 L 422.5 993 L 382.5 984 L 344.5 972 L 321.5 963 L 274 939.5 L 275.5 939 L 288.5 945 L 300.5 948 L 313.5 949 L 314.5 950 L 337.5 950 L 338.5 949 L 346.5 949 L 363.5 946 L 393.5 937 Q 422.9 925.9 447.5 910 Z " /><path fill="rgb(4,156,242)" stroke="rgb(4,156,242)" stroke-width="1" opacity="0.9803921568627451" d="M 606.5 990 L 608 990.5 L 604.5 992 L 604.5 991 L 606.5 990 Z " /><path fill="rgb(4,156,242)" stroke="rgb(4,156,242)" stroke-width="1" opacity="0.9803921568627451" d="M 601.5 991 L 603 991.5 Q 600.9 993.9 595.5 993 L 595.5 992 Q 600.3 993.3 601.5 991 Z " /><path fill="rgb(13,243,113)" stroke="rgb(13,243,113)" stroke-width="1" opacity="0.996078431372549" d="M 103.5 291 L 155.5 291 L 156.5 292 L 183.5 294 L 220.5 301 Q 290 318 344 350.5 L 307.5 413 L 307 411 Q 272.4 391.9 229.5 380 L 188.5 372 L 164.5 371 L 163.5 370 L 144.5 370 L 143.5 371 L 130.5 371 L 129.5 372 L 121.5 372 L 104.5 375 Q 81.5 380 62.5 389 Q 32 403.5 11 427.5 L 3.5 437 L 0 425.5 L 0 403.5 Q 16.9 347.9 44.5 303 L 46 302.5 L 45.5 301 L 71.5 295 L 91.5 293 L 92.5 292 L 102.5 292 L 103.5 291 Z " /><path fill="rgb(13,243,113)" stroke="rgb(13,243,113)" stroke-width="1" opacity="0.996078431372549" d="M 1019 584 L 1021 584.5 Q 1018.5 586 1022 587.5 L 1024 596.5 L 1024 617.5 L 1018 637.5 L 1005 669.5 L 979.5 720 Q 978 717.5 976.5 721 L 934.5 729 L 911.5 730 L 910.5 731 L 879.5 731 L 878.5 730 L 863.5 730 L 862.5 729 L 853.5 729 L 852.5 728 L 831.5 726 L 779.5 714 L 724.5 694 L 680 672 L 682 666.5 L 698 641.5 L 705 626.5 L 716.5 609 Q 736.2 621.3 759.5 630 L 782.5 638 L 809.5 645 L 832.5 649 L 839.5 649 L 840.5 650 L 851.5 650 L 852.5 651 L 886.5 651 L 887.5 650 L 897.5 650 L 898.5 649 L 905.5 649 L 921.5 646 L 955.5 635 Q 991.5 619.5 1015 591.5 L 1019 586.5 L 1019 584 Z " /><path fill="rgb(189,247,90)" stroke="rgb(189,247,90)" stroke-width="1" opacity="0.9921568627450981" d="M 793 434 L 797.5 435 L 962 530.5 L 960 531 Q 952.8 546.4 939.5 557 Q 921.2 573.2 894.5 581 L 870.5 586 L 839.5 587 L 838.5 586 L 827.5 586 L 826.5 585 L 814.5 584 L 789.5 578 Q 764.5 570.3 744 559 L 745 553.5 L 772 493.5 L 793 434 Z " /><path fill="rgb(189,247,90)" stroke="rgb(189,247,90)" stroke-width="1" opacity="0.9921568627450981" d="M 157.5 435 L 192.5 435 L 193.5 436 L 200.5 436 L 217.5 439 L 253.5 450 L 277.5 461 L 280 463.5 L 249 535.5 L 231 588 L 61 490.5 L 64 490 Q 70.5 476.8 81.5 467 Q 94.4 454.9 111.5 447 L 130.5 440 L 157.5 435 Z " /><path fill="rgb(68,244,92)" stroke="rgb(68,244,92)" stroke-width="1" opacity="0.996078431372549" d="M 144.5 370 L 163.5 370 L 164.5 371 L 188.5 372 L 229.5 380 Q 272.4 391.9 307 411 L 307 413.5 Q 292.3 437.8 280.5 465 L 277.5 461 L 245.5 447 L 217.5 439 L 200.5 436 L 193.5 436 L 192.5 435 L 157.5 435 L 130.5 440 L 111.5 447 Q 91.3 456.3 77 471.5 Q 68.6 479.6 64 490 L 60.5 490 L 35.5 476 Q 24.2 469.3 16 459.5 Q 7.7 450.3 4 436.5 L 25.5 413 Q 48.2 393.2 79.5 382 L 109.5 374 L 120.5 373 L 121.5 372 L 129.5 372 L 130.5 371 L 143.5 371 L 144.5 370 Z " /><path fill="rgb(68,244,92)" stroke="rgb(68,244,92)" stroke-width="1" opacity="0.996078431372549" d="M 960 531 L 968.5 534 L 989.5 546 L 1005 558.5 Q 1015.3 568.2 1020 583.5 L 1015 591.5 L 996.5 610 Q 969.1 633.1 929.5 644 L 897.5 650 L 887.5 650 L 886.5 651 L 852.5 651 L 851.5 650 L 840.5 650 L 839.5 649 L 819.5 647 L 782.5 638 Q 746.5 627 717 609.5 L 743.5 557 L 744 559 L 774.5 573 L 804.5 582 L 827.5 586 L 858.5 587 L 859.5 586 L 870.5 586 L 871.5 585 L 882.5 584 L 908.5 576 Q 933.5 565.5 950 546.5 L 959 534.5 L 960 531 Z " /><path fill="rgb(1,96,250)" stroke="rgb(1,96,250)" stroke-width="1" opacity="0.9921568627450981" d="M 692.5 71 L 703.5 71 L 704.5 72 L 721.5 73 L 746.5 81 L 748 80.5 Q 747.3 82.8 749.5 82 Q 771.5 92 786 109.5 Q 802.1 127.9 811 153.5 L 810 155.5 L 811 158 L 629.5 213 L 624.5 216 L 620.5 214 L 619 214.5 L 619.5 213 L 615.5 214 L 612.5 213 L 609.5 212 L 606.5 213 L 604.5 212 L 568.5 212 L 567.5 213 L 559.5 213 L 542.5 216 L 505.5 227 L 472.5 242 L 448.5 256 L 436.5 265 L 434 265 Q 435.1 267.7 432.5 267 L 429.5 270 L 427.5 270 Q 424.9 269.2 426 272.5 L 423.5 273 L 417 277.5 Q 419.3 278.8 416.5 280 L 414.5 280 L 391.5 287 L 393 284.5 Q 431.8 230.8 479.5 186 Q 527.8 138.8 588.5 104 Q 613.7 89.7 643.5 80 L 667.5 74 L 679.5 73 L 680.5 72 L 691.5 72 L 692.5 71 Z " /><path fill="rgb(1,96,250)" stroke="rgb(1,96,250)" stroke-width="1" opacity="0.9921568627450981" d="M 410.5 284 L 409.5 286 L 410.5 284 Z " /><path fill="rgb(1,96,250)" stroke="rgb(1,96,250)" stroke-width="1" opacity="0.9921568627450981" d="M 630.5 735 L 633 735.5 Q 589.4 793.9 536.5 843 Q 508.8 868.8 477.5 891 Q 446.7 913.2 410.5 930 Q 388.9 939.9 363.5 946 L 346.5 949 L 338.5 949 L 337.5 950 L 314.5 950 L 288.5 945 L 265.5 935 Q 248.3 924.8 236 909.5 Q 221.6 891.9 213 868.5 L 214 866.5 L 213 864.5 L 214.5 863 L 402.5 806 L 405.5 808 L 406.5 807 L 410.5 809 L 413.5 808 L 414.5 809 L 425.5 809 L 426.5 810 L 448.5 810 L 449.5 809 L 459.5 809 L 460.5 808 L 467.5 808 L 483.5 805 L 502.5 800 L 529.5 790 Q 566.9 773.9 596.5 750 L 598.5 750 L 601 748.5 Q 598.8 747.3 601.5 746 L 603.5 746 L 605 745.5 Q 602.8 744.3 605.5 743 L 607.5 743 L 610 741.5 L 609.5 740 L 613.5 741 L 630.5 735 Z " /><path fill="rgb(7,200,242)" stroke="rgb(7,200,242)" stroke-width="1" opacity="0.9921568627450981" d="M 432.5 27 Q 509.4 63.6 576 110.5 Q 525.3 141.8 483.5 182 Q 389.1 119.9 269.5 83 L 268 83.5 Q 267.3 81.3 269.5 82 Q 302.9 63.4 341.5 50 L 376.5 39 L 417.5 30 L 420 31 L 420.5 29 L 424.5 30 Q 425.8 27.8 430.5 29 L 432.5 27 Z " /><path fill="rgb(7,200,242)" stroke="rgb(7,200,242)" stroke-width="1" opacity="0.9921568627450981" d="M 475.5 189 L 464.5 201 L 475.5 189 Z " /><path fill="rgb(7,200,242)" stroke="rgb(7,200,242)" stroke-width="1" opacity="0.9921568627450981" d="M 446.5 219 L 443.5 223 L 446.5 219 Z " /><path fill="rgb(7,200,242)" stroke="rgb(7,200,242)" stroke-width="1" opacity="0.9921568627450981" d="M 435.5 231 L 434.5 233 L 435.5 231 Z " /><path fill="rgb(7,200,242)" stroke="rgb(7,200,242)" stroke-width="1" opacity="0.9921568627450981" d="M 427.5 240 L 426.5 242 L 427.5 240 Z " /><path fill="rgb(7,200,242)" stroke="rgb(7,200,242)" stroke-width="1" opacity="0.9921568627450981" d="M 421.5 247 L 420.5 249 L 421.5 247 Z " /><path fill="rgb(7,200,242)" stroke="rgb(7,200,242)" stroke-width="1" opacity="0.9921568627450981" d="M 823.5 250 Q 826.3 249.4 825 255.5 L 826 256.5 L 826 269.5 L 825 272.5 L 824 296.5 L 823 297.5 L 823 305.5 L 822 306.5 L 822 313.5 L 821 314.5 L 819 334 L 816.5 333 L 756 352 L 745 318.5 L 730 290.5 L 730 288 Q 727 289.3 728 285.5 L 726.5 283 L 725 283.5 L 726.5 280 L 823.5 250 Z " /><path fill="rgb(7,200,242)" stroke="rgb(7,200,242)" stroke-width="1" opacity="0.9921568627450981" d="M 416.5 253 L 415.5 255 L 416.5 253 Z " /><path fill="rgb(7,200,242)" stroke="rgb(7,200,242)" stroke-width="1" opacity="0.9921568627450981" d="M 756.5 353 L 758 355.5 L 757 355.5 L 756.5 353 Z " /><path fill="rgb(7,200,242)" stroke="rgb(7,200,242)" stroke-width="1" opacity="0.9921568627450981" d="M 264.5 670 Q 268.9 668.5 268 671.5 L 280 705.5 L 295 732.5 L 294.5 734 Q 297.1 733.2 296 736.5 L 299 740.5 L 199 771 L 198 768.5 L 199 765.5 L 198 764.5 L 198 751.5 L 199 750.5 L 199 735.5 L 200 734.5 L 202 707.5 L 206.5 686 L 207 688 L 264.5 670 Z " /><path fill="rgb(7,200,242)" stroke="rgb(7,200,242)" stroke-width="1" opacity="0.9921568627450981" d="M 615.5 758 L 614.5 760 L 615.5 758 Z " /><path fill="rgb(7,200,242)" stroke="rgb(7,200,242)" stroke-width="1" opacity="0.9921568627450981" d="M 605.5 770 L 604.5 772 L 605.5 770 Z " /><path fill="rgb(7,200,242)" stroke="rgb(7,200,242)" stroke-width="1" opacity="0.9921568627450981" d="M 592.5 785 L 591.5 787 L 592.5 785 Z " /><path fill="rgb(7,200,242)" stroke="rgb(7,200,242)" stroke-width="1" opacity="0.9921568627450981" d="M 584.5 794 L 583.5 796 L 584.5 794 Z " /><path fill="rgb(7,200,242)" stroke="rgb(7,200,242)" stroke-width="1" opacity="0.9921568627450981" d="M 572.5 807 L 567.5 813 L 572.5 807 Z " /><path fill="rgb(7,200,242)" stroke="rgb(7,200,242)" stroke-width="1" opacity="0.9921568627450981" d="M 548.5 831 L 541 839.5 L 543.5 842 Q 593.4 873.6 649.5 899 L 713.5 925 L 755 938.5 Q 693.7 974.2 612.5 990 L 611 989.5 Q 611.8 992.1 608.5 991 L 606.5 990 L 603.5 992 L 601.5 991 L 595 992 Q 596.1 994.7 593.5 994 L 588.5 993 L 534.5 965 Q 489.5 939.8 448 912 Q 446.9 909.3 449.5 910 Q 504.5 876 548.5 831 Z " /><path fill="rgb(11,244,220)" stroke="rgb(11,244,220)" stroke-width="1" opacity="0.984313725490196" d="M 157.5 160 L 158 162 L 156 161.5 L 157.5 160 Z " /><path fill="rgb(11,244,220)" stroke="rgb(11,244,220)" stroke-width="1" opacity="0.984313725490196" d="M 154.5 163 L 160.5 165 L 173.5 166 L 215.5 174 L 250.5 183 L 293.5 197 Q 358.7 221.1 414 254 L 413 257.5 L 386.5 291 Q 327.1 255.4 254.5 233 L 216.5 223 L 180.5 216 L 159.5 214 L 158.5 213 L 149.5 213 L 148.5 212 L 110.5 210 L 106.5 215 L 104.5 216 L 110 209.5 L 142.5 174 L 145 172.5 L 146.5 170 L 154.5 163 Z " /><path fill="rgb(11,244,220)" stroke="rgb(11,244,220)" stroke-width="1" opacity="0.984313725490196" d="M 384.5 293 L 383.5 295 L 384.5 293 Z " /><path fill="rgb(11,244,220)" stroke="rgb(11,244,220)" stroke-width="1" opacity="0.984313725490196" d="M 808.5 380 L 808 381.5 L 805 396.5 L 796 427.5 L 792 435.5 L 785 458.5 L 771 495.5 L 742 560.5 L 718.5 604 L 719 602.5 Q 731.9 577.4 742 549.5 L 755 505.5 L 760 480.5 L 762 458.5 L 763 457.5 L 763 448.5 L 764 447.5 L 764 398.5 L 763 393.5 L 764 393.5 Q 762.8 397.3 766.5 396 L 799.5 386 L 807 382.5 L 808.5 380 Z " /><path fill="rgb(11,244,220)" stroke="rgb(11,244,220)" stroke-width="1" opacity="0.984313725490196" d="M 307.5 414 L 307 415.5 Q 281.6 462.1 268 520.5 L 263 547.5 L 261 572.5 L 260 573.5 L 260 622.5 Q 262.3 623.7 261 628.5 L 260 628.5 Q 261.5 624.1 258.5 625 L 217 638 L 216.5 640 L 216 636.5 Q 249.7 513.2 307.5 414 Z " /><path fill="rgb(11,244,220)" stroke="rgb(11,244,220)" stroke-width="1" opacity="0.984313725490196" d="M 638.5 729 L 638.5 731 Q 698.4 766.6 771.5 789 L 805.5 798 L 847.5 806 L 870.5 808 L 871.5 809 L 881.5 809 L 882.5 810 L 913.5 811 L 919 806.5 Q 898.2 832.7 873.5 855 L 867.5 860 L 868.5 857 L 847.5 855 L 802.5 846 L 740.5 828 Q 669.2 803.3 610 766.5 L 638.5 729 Z " /><path fill="rgb(11,244,220)" stroke="rgb(11,244,220)" stroke-width="1" opacity="0.984313725490196" d="M 922.5 802 L 921.5 804 L 922.5 802 Z " /></svg>