<?xml version="1.0" standalone="no"?>
<!DOCTYPE svg PUBLIC "-//W3C//DTD SVG 20010904//EN"
 "http://www.w3.org/TR/2001/REC-SVG-20010904/DTD/svg10.dtd">
<svg version="1.0" xmlns="http://www.w3.org/2000/svg"
 width="512.000000pt" height="512.000000pt" viewBox="0 0 512.000000 512.000000"
 preserveAspectRatio="xMidYMid meet">

<g transform="translate(0.000000,512.000000) scale(0.100000,-0.100000)"
fill="#000000" stroke="none">
<path d="M809 5049 c-368 -36 -683 -310 -781 -679 l-23 -85 0 -1725 0 -1725
23 -85 c102 -382 413 -645 808 -680 81 -8 664 -10 1809 -8 1864 4 1726 -1
1902 67 262 102 472 339 546 621 l22 85 0 1725 0 1725 -23 85 c-100 380 -409
643 -799 680 -131 12 -3355 11 -3484 -1z m1264 -1284 c207 -31 351 -99 478
-225 135 -133 195 -274 206 -480 13 -259 -77 -481 -252 -623 -78 -63 -218
-130 -325 -156 -118 -29 -313 -45 -452 -37 l-118 6 -2 -358 -3 -357 -222 -3
-223 -2 0 1120 0 1119 128 4 c391 9 691 6 785 -8z m1847 -530 c95 -14 184 -39
208 -58 9 -7 12 -60 12 -203 0 -225 8 -213 -112 -165 -151 61 -385 88 -490 57
-140 -40 -129 -160 21 -235 31 -16 99 -45 151 -66 163 -64 308 -144 377 -209
104 -96 152 -224 139 -371 -15 -189 -114 -330 -290 -415 -112 -54 -187 -70
-358 -77 -210 -8 -401 20 -531 77 l-47 21 0 209 c0 116 3 210 6 210 4 0 21 -9
38 -19 57 -36 184 -80 288 -102 79 -16 129 -20 218 -17 138 4 185 22 213 81
18 36 18 38 0 74 -23 49 -74 79 -251 152 -78 32 -177 78 -219 102 -99 56 -210
164 -245 239 -149 320 72 670 457 723 75 10 328 6 415 -8z"/>
<path d="M1617 3363 c-4 -3 -7 -168 -7 -365 l0 -358 153 0 c230 0 348 34 446
125 65 61 93 131 94 235 1 98 -24 177 -75 235 -89 101 -201 135 -443 135 -89
0 -165 -3 -168 -7z"/>
</g>
</svg>
